<svg width="83" height="20" viewBox="0 0 83 20" fill="none" xmlns="http://www.w3.org/2000/svg">
<g clip-path="url(#clip0)">
<path fill-rule="evenodd" clip-rule="evenodd" d="M81.4523 4.18155C81.4108 4.33843 81.3206 4.72891 81.2031 5.23737C81.1207 5.59396 81.025 6.00858 80.9232 6.44134L79.3182 14.146C79.1948 14.7154 79.0537 15.1958 78.8773 15.6228C78.701 16.0499 78.4717 16.4058 78.1719 16.6727C77.872 16.9574 77.5193 17.1531 77.0784 17.2954C76.6375 17.4378 76.1084 17.509 75.4558 17.509C75.2768 17.509 75.1129 17.4938 74.9362 17.4775L74.8914 17.4734C73.7101 17.4632 72.2974 17.4822 71.1997 17.4969C70.38 17.5079 69.7359 17.5166 69.4946 17.509C68.7362 17.509 68.0484 17.42 67.4311 17.2065C64.4329 16.299 63.9567 12.5801 64.9091 9.94668C66.0378 6.47693 69.1595 4.80433 72.5987 5.87194C74.6445 6.49472 75.738 8.38084 75.7027 10.5339C75.6915 10.6361 75.6922 10.7745 75.693 10.9294C75.6959 11.5023 75.7001 12.2992 75.1031 12.3132H67.4664C67.2371 14.0214 68.0484 15.2314 69.9179 15.1958C70.0172 15.1958 71.4476 15.1771 72.8439 15.1589C74.1752 15.1416 75.4755 15.1246 75.5616 15.1246C75.7733 15.1246 75.932 15.0534 76.0555 14.9111C76.1789 14.7687 76.2671 14.6086 76.3553 14.3951C76.4258 14.1993 76.4964 13.9858 76.5316 13.7723C76.5678 13.6386 76.5957 13.5214 76.621 13.4152C76.6327 13.366 76.6439 13.3192 76.6551 13.2741V13.2385L77.0607 11.299H77.0431C77.1366 10.8358 77.2261 10.3684 77.3094 9.9328C77.399 9.46483 77.4815 9.03351 77.5546 8.68333L76.4082 8.71892C76.1084 8.71892 75.932 8.34525 76.1436 8.11394L78.1719 5.90753C78.2642 5.44152 78.3131 5.15614 78.3564 4.90308C78.3957 4.67301 78.4305 4.46965 78.4893 4.18155C78.8068 2.75807 80.2353 0.658421 80.6586 0.0534393C80.6939 -0.0177351 80.8174 5.84768e-05 80.835 0.0890264C81.0114 0.676215 81.5052 2.40219 81.4875 3.71892V3.80789C81.4875 3.93239 81.4699 4.05705 81.4523 4.18155ZM71.6992 8.14952C70.4117 7.58013 68.842 8.14952 68.1895 9.43066C68.0308 9.73315 67.8897 10.0356 67.7662 10.3559H72.7045C72.7045 9.51963 72.5281 8.54098 71.6992 8.14952Z" fill="#424750"/>
<path d="M62.4928 3.91474H64.5563C64.8032 3.91474 64.9972 3.7546 65.0501 3.50549L65.4029 1.95744C65.4734 1.63716 65.2265 1.33467 64.909 1.33467H62.8456C62.5986 1.33467 62.4046 1.49481 62.3517 1.74392L62.0166 3.29196C61.9284 3.61225 62.1577 3.91474 62.4928 3.91474Z" fill="#424750"/>
<path d="M33.8157 7.42006L30.8704 11.1211L33.8333 14.8222C33.9921 15.0357 33.851 15.3382 33.5864 15.3382H31.9109C31.7698 15.3382 31.664 15.2848 31.5758 15.1781L28.5776 11.4236V14.8934C28.5776 15.1247 28.3836 15.3204 28.1543 15.3204H26.9727C26.7434 15.3204 26.5494 15.1247 26.5494 14.8934V4.37735C26.5494 4.14604 26.7434 3.95031 26.9727 3.95031H28.1543C28.3836 3.95031 28.5776 4.14604 28.5776 4.37735V10.7653L31.5582 7.06419C31.6464 6.95743 31.7698 6.90404 31.8933 6.90404H33.5688C33.8333 6.90404 33.9744 7.22433 33.8157 7.42006Z" fill="#424750"/>
<path d="M44.5564 3.96805H45.738C45.9849 3.96805 46.1613 4.14599 46.1613 4.37731V14.9111C46.1613 15.1424 45.9673 15.3382 45.738 15.3382H44.5564C44.3271 15.3382 44.1331 15.1424 44.1331 14.9111V4.3951C44.1331 4.16378 44.3271 3.96805 44.5564 3.96805Z" fill="#424750"/>
<path d="M10.6233 6.9218H11.805C12.0343 6.9218 12.2283 7.09973 12.2283 7.34884V14.9111C12.2283 15.1424 12.0343 15.3382 11.805 15.3382H10.6233C10.3941 15.3382 10.2001 15.1424 10.2001 14.9111V7.34884C10.2001 7.11753 10.3941 6.9218 10.6233 6.9218Z" fill="#424750"/>
<path d="M11.805 3.96805H10.6233C10.3941 3.96805 10.2001 4.16378 10.2001 4.3951V5.48051C10.2001 5.71183 10.3941 5.90756 10.6233 5.90756H11.805C12.0343 5.90756 12.2283 5.71183 12.2283 5.48051V4.3951C12.2283 4.14599 12.0343 3.96805 11.805 3.96805Z" fill="#424750"/>
<path d="M23.5864 6.9218H24.768C24.9973 6.9218 25.1913 7.09973 25.1913 7.34884V14.9111C25.1913 15.1424 24.9973 15.3382 24.768 15.3382H23.5864C23.3571 15.3382 23.1631 15.1424 23.1631 14.9111V7.34884C23.1631 7.11753 23.3571 6.9218 23.5864 6.9218Z" fill="#424750"/>
<path d="M24.768 3.96805H23.5864C23.3571 3.96805 23.1631 4.16378 23.1631 4.3951V5.48051C23.1631 5.71183 23.3571 5.90756 23.5864 5.90756H24.768C24.9973 5.90756 25.1913 5.71183 25.1913 5.48051V4.3951C25.1913 4.14599 24.9973 3.96805 24.768 3.96805Z" fill="#424750"/>
<path fill-rule="evenodd" clip-rule="evenodd" d="M8.41881 3.96805H7.11369C6.88442 3.96805 6.69041 4.16378 6.69041 4.3951V6.92179H3.56872C1.8756 6.92179 0.499939 8.30969 0.499939 10.0179V12.2421C0.499939 13.9503 1.8756 15.3382 3.56872 15.3382H5.64985C5.89676 15.3382 6.1084 15.2314 6.26713 15.0357L6.70805 14.4663V14.9111C6.70805 15.1424 6.90205 15.3382 7.13133 15.3382H8.43645C8.66572 15.3382 8.85973 15.1424 8.85973 14.9111V4.37731C8.84209 4.14599 8.64809 3.96805 8.41881 3.96805ZM6.69041 13.1673H3.62163C3.07489 13.1673 2.63398 12.7225 2.63398 12.1709V10.0713C2.63398 9.51965 3.07489 9.07481 3.62163 9.07481H6.69041V13.1673Z" fill="#424750"/>
<path fill-rule="evenodd" clip-rule="evenodd" d="M20.0766 6.9218H21.3817C21.6286 6.9218 21.805 7.11753 21.8226 7.34884V15.4271C21.8226 17.1353 20.447 18.5232 18.7539 18.5232H17.1489C16.902 18.5232 16.6727 18.4165 16.5316 18.2207L15.5969 16.9752C15.4382 16.7794 15.5969 16.477 15.8438 16.477H18.6833C19.23 16.477 19.671 16.0321 19.671 15.4805V15.3382H16.5316C14.8385 15.3382 13.4629 13.9503 13.4629 12.2421V10.0179C13.4629 8.3097 14.8385 6.9218 16.5316 6.9218H18.6128C18.8597 6.9218 19.089 7.02856 19.23 7.22429L19.6533 7.79368V7.34884C19.6533 7.11753 19.8473 6.9218 20.0766 6.9218ZM16.6022 13.2919H19.671V9.07482H16.6022C16.0554 9.07482 15.6145 9.51966 15.6145 10.0713V12.2955C15.6145 12.8471 16.0554 13.2919 16.6022 13.2919Z" fill="#424750"/>
<path fill-rule="evenodd" clip-rule="evenodd" d="M55.2266 6.9218H50.4823C48.7892 6.9218 47.4135 8.3097 47.4135 10.0179V12.2421C47.4135 13.9503 48.7892 15.3382 50.4823 15.3382H52.5987C52.8456 15.3382 53.0749 15.2136 53.216 15.0179L53.6216 14.4663V14.9111C53.6216 15.1424 53.8156 15.3382 54.0449 15.3382H55.2266C55.4558 15.3382 55.6498 15.1424 55.6498 14.9111V7.34884C55.6322 7.09973 55.4558 6.9218 55.2266 6.9218ZM53.604 13.2919H50.4118C49.865 13.2919 49.4241 12.8471 49.4241 12.2955V10.0713C49.4241 9.51966 49.865 9.07482 50.4118 9.07482H53.604V13.2919Z" fill="#424750"/>
<path fill-rule="evenodd" clip-rule="evenodd" d="M37.5018 6.9218H42.246C42.4753 6.9218 42.6693 7.09973 42.6693 7.34884V14.9111C42.6693 15.1424 42.4753 15.3382 42.246 15.3382H41.0644C40.8351 15.3382 40.6411 15.1424 40.6411 14.9111V14.4663L40.2355 15.0179C40.0944 15.2136 39.8651 15.3382 39.6182 15.3382H37.5018C35.8086 15.3382 34.433 13.9503 34.433 12.2421V10.0179C34.433 8.3097 35.8086 6.9218 37.5018 6.9218ZM37.4489 13.2919H40.6411V9.07482H37.4489C36.9021 9.07482 36.4612 9.51966 36.4612 10.0713V12.2955C36.4612 12.8471 36.9021 13.2919 37.4489 13.2919Z" fill="#424750"/>
<path d="M61.9638 5.65846H64.0097C64.3271 5.65846 64.574 5.96095 64.5035 6.29903L62.4047 16.4236C62.2813 17.0286 62.1225 17.5446 61.9285 18.0072C61.7345 18.4698 61.4876 18.8435 61.1702 19.1282C60.8527 19.4129 60.4471 19.6442 59.9885 19.7866C59.5123 19.9289 58.9479 20.0001 58.2425 20.0001C57.9956 20.0001 57.731 20.0001 57.4841 19.9645C57.4577 19.9645 57.4268 19.9601 57.396 19.9556C57.3651 19.9512 57.3342 19.9467 57.3077 19.9467C57.0079 19.9111 56.7963 19.6264 56.8668 19.3239L57.1843 17.8293C57.2372 17.5802 57.4665 17.4022 57.7134 17.42H57.8368C58.0132 17.4378 58.1895 17.4378 58.3835 17.4378C58.6128 17.4378 58.7892 17.3666 58.9127 17.2065C59.0538 17.0464 59.1596 16.8506 59.2478 16.6371C59.336 16.4058 59.4065 16.1923 59.4418 15.9609C59.4696 15.7782 59.5085 15.6288 59.541 15.5039C59.5496 15.4707 59.5578 15.4392 59.5652 15.4093V15.3738L61.47 6.06771C61.5053 5.83639 61.7169 5.65846 61.9638 5.65846Z" fill="#424750"/>
<path d="M82.8103 8.16742L81.5052 5.85425L80.8703 8.96813H82.3518C82.7398 8.98592 83.0044 8.54108 82.8103 8.16742Z" fill="#424750"/>
</g>
<defs>
<clipPath id="clip0">
<rect width="82.439" height="20" fill="white" transform="translate(0.499939)"/>
</clipPath>
</defs>
</svg>
