<svg width="88" height="14" viewBox="0 0 88 14" fill="none" xmlns="http://www.w3.org/2000/svg">
<path fill-rule="evenodd" clip-rule="evenodd" d="M66.1883 5.8893C66.1883 5.4087 66.5801 5.01659 67.0604 5.01659H69.7005C69.9774 5.01659 70.2029 5.24209 70.2029 5.52079C70.2029 5.79793 69.9774 6.02344 69.7005 6.02344H66.1883V5.8893ZM67.0884 7.91633C67.1577 7.98565 67.2519 8.02545 67.3506 8.02545H69.6503C71.0514 8.02545 72.2271 6.87848 72.202 5.47649C72.1784 4.1157 71.0647 3.01593 69.7005 3.01593H67.0604C65.7433 3.01593 64.6311 3.9064 64.2937 5.11974C64.2259 5.3644 64.189 5.62246 64.189 5.88924V8.16107C64.189 9.74588 65.4767 11.0344 67.0604 11.0344H70.8334C71.0381 11.0344 71.2032 10.8693 71.2032 10.6643V9.40385C71.2032 9.19891 71.0381 9.03386 70.8334 9.03386H67.0604C66.5801 9.03386 66.1883 8.64167 66.1883 8.16107V7.01705L67.0884 7.91633Z" fill="#424750"/>
<path fill-rule="evenodd" clip-rule="evenodd" d="M78.3204 3.01005H76.361C76.2623 3.01005 76.1694 3.04837 76.1002 3.11769L75.1853 4.02281V0.419795C75.1853 0.189779 74.9982 0.00111987 74.7684 0.00111987H73.6016C73.4175 0.00111987 73.2627 0.11905 73.2083 0.282703C73.2023 0.301865 73.2009 0.322506 73.2009 0.343148V10.6643C73.2009 10.8693 73.3688 11.0358 73.5721 11.0358H74.8406C75.0454 11.0358 75.2118 10.8693 75.2118 10.6643V9.02938H75.2074V5.00325H78.369C78.8419 5.00325 79.2264 5.38804 79.2264 5.86272V10.6658C79.2264 10.8693 79.3929 11.0358 79.5977 11.0358H80.8514C81.0562 11.0358 81.2212 10.8693 81.2212 10.6658V5.91281C81.2212 4.31031 79.9218 3.01005 78.3204 3.01005Z" fill="#424750"/>
<path fill-rule="evenodd" clip-rule="evenodd" d="M63.1733 5.9095V10.6594C63.1733 10.8643 63.0059 11.0319 62.8012 11.0319H61.5495C61.3444 11.0319 61.177 10.8643 61.177 10.6594V5.86289C61.177 5.38799 60.7954 5.00142 60.3208 5.00142H59.0413C59.139 5.28552 59.1903 5.59285 59.1903 5.9095V10.6594C59.1903 10.8643 59.0227 11.0319 58.8179 11.0319H57.5662C57.3614 11.0319 57.1984 10.8643 57.1984 10.6594V5.86289C57.1984 5.39724 56.8262 5.0154 56.3655 5.00608C56.3564 5.00142 56.3469 5.00142 56.3377 5.00142H55.1891V10.6594C55.1891 10.8643 55.0261 11.0319 54.8214 11.0319H53.5509C53.3509 11.0319 53.1833 10.8643 53.1833 10.6594V3.35299C53.1833 3.32961 53.1833 3.31104 53.1881 3.29232C53.244 3.12941 53.3974 3.01303 53.5835 3.01303H54.7469C54.9795 3.01303 55.1659 3.19925 55.1659 3.42741V4.0235L56.078 3.12008C56.1477 3.05017 56.2408 3.01303 56.3386 3.01303H56.2744C56.386 3.01303 56.5145 3.01769 56.6261 3.0316H56.6309C57.2962 3.11076 57.8965 3.4135 58.348 3.86518C58.376 3.89307 58.3992 3.92111 58.4226 3.94893L59.2601 3.12008C59.3298 3.05017 59.423 3.01303 59.5207 3.01303H60.2742C61.8751 3.01303 63.1733 4.30753 63.1733 5.9095Z" fill="#424750"/>
<path fill-rule="evenodd" clip-rule="evenodd" d="M86.8587 3.01531H85.3884C85.3092 3.01531 85.233 3.04054 85.17 3.08723C85.1544 3.09758 85.1397 3.11016 85.1263 3.12348L85.1256 3.12429L84.2238 4.0303V3.38575C84.2238 3.24503 84.1454 3.12281 84.0299 3.05985C83.9989 3.04276 83.964 3.03019 83.9285 3.02279C83.904 3.01835 83.8788 3.01531 83.8537 3.01531H82.5899C82.4337 3.01531 82.3005 3.11172 82.2465 3.24873C82.2293 3.2909 82.2197 3.33759 82.2197 3.38575V10.6654C82.2197 10.87 82.3856 11.0358 82.5899 11.0358H83.8537C84.0582 11.0358 84.2238 10.87 84.2238 10.6654V5.39123C84.2238 5.18674 84.3896 5.0208 84.594 5.0208H86.8587C87.0632 5.0208 87.2289 4.855 87.2289 4.65043V3.38575C87.2289 3.18126 87.0632 3.01531 86.8587 3.01531Z" fill="#424750"/>
<path fill-rule="evenodd" clip-rule="evenodd" d="M26.1713 10.601C26.1713 10.8278 25.9859 11.0134 25.7592 11.0134H24.5791C24.3506 11.0134 24.167 10.8278 24.167 10.601V0.412731C24.167 0.185971 24.3506 0.000270937 24.5791 0.000270937H25.8017C26.005 0.000270937 26.1713 0.166735 26.1713 0.370191V10.601Z" fill="#424750"/>
<path fill-rule="evenodd" clip-rule="evenodd" d="M43.1774 10.601C43.1774 10.8278 42.9919 11.0134 42.7653 11.0134H41.5851C41.3567 11.0134 41.1731 10.8278 41.1731 10.601V0.412767C41.1731 0.185933 41.3567 0.000307062 41.5851 0.000307062H42.8077C43.011 0.000307062 43.1774 0.166771 43.1774 0.370227V10.601Z" fill="#424750"/>
<path fill-rule="evenodd" clip-rule="evenodd" d="M6.1584 9.0105H3.01402C2.54085 9.0105 2.15713 8.62652 2.15713 8.15302V5.86322C2.15713 5.38972 2.54011 5.00649 3.01328 5.00575H6.1584V9.0105ZM7.7901 0H6.52806C6.32401 0 6.1584 0.165724 6.1584 0.36992V3.00375H2.91347C2.72716 3.00375 2.54528 3.02224 2.36932 3.05702C1.09915 3.36405 0.155762 4.50932 0.155762 5.87358V8.1153C0.155762 9.71557 1.45255 11.0132 3.05172 11.0132H4.99543C5.07453 11.0132 5.15069 10.9881 5.21353 10.9415C5.22906 10.9311 5.24384 10.9185 5.25715 10.9052L5.25789 10.9045L6.15913 9.99893V10.6433C6.15913 10.8468 6.32548 11.0132 6.5288 11.0132H7.76053C7.94388 11.0132 8.09766 10.8956 8.15385 10.7328C8.15829 10.7129 8.15977 10.6922 8.15977 10.6707V0.36992C8.15977 0.165724 7.99416 0 7.7901 0Z" fill="#424750"/>
<path fill-rule="evenodd" clip-rule="evenodd" d="M38.1729 9.02303H35.0182C34.545 9.02303 34.1613 8.63906 34.1613 8.16556V5.86318C34.1613 5.38968 34.5443 5.00645 35.0175 5.00571H38.1729V9.02303ZM39.8046 3.00375H34.928C34.7417 3.00375 34.5598 3.02224 34.3838 3.05701C33.1137 3.36405 32.1703 4.50932 32.1703 5.87358V8.11529C32.1703 9.71557 33.4671 11.0132 35.0662 11.0132H37.021C37.1186 11.0132 37.2125 10.9748 37.2813 10.906L38.1936 10.0026V10.596C38.1936 10.8253 38.3814 11.0132 38.6106 11.0132H39.775C39.9584 11.0132 40.1122 10.8956 40.1684 10.7328C40.1728 10.7129 40.1743 10.6922 40.1743 10.6707V3.37367C40.1743 3.16947 40.0087 3.00375 39.8046 3.00375Z" fill="#424750"/>
<path fill-rule="evenodd" clip-rule="evenodd" d="M50.1797 9.02303H47.025C46.5518 9.02303 46.1681 8.63906 46.1681 8.16556V5.86318C46.1681 5.38968 46.5511 5.00645 47.0242 5.00571H50.1797V9.02303ZM51.8114 3.00375H46.9348C46.7485 3.00375 46.5666 3.02224 46.3906 3.05701C45.1205 3.36405 44.1771 4.50932 44.1771 5.87358V8.11529C44.1771 9.71557 45.4731 11.0132 47.073 11.0132H49.0278C49.1254 11.0132 49.2186 10.9748 49.2881 10.906L50.2004 10.0026V10.596C50.2004 10.8253 50.3875 11.0132 50.6174 11.0132H51.7818C51.9652 11.0132 52.119 10.8956 52.1752 10.7328C52.1796 10.7129 52.1811 10.6922 52.1811 10.6707V3.37367C52.1811 3.16947 52.0155 3.00375 51.8114 3.00375Z" fill="#424750"/>
<path fill-rule="evenodd" clip-rule="evenodd" d="M18.1644 9.01132H15.0185C14.5454 9.01058 14.1624 8.62734 14.1624 8.15384V5.86404C14.1624 5.39054 14.5461 5.00657 15.0193 5.00657H18.1644V9.01132ZM20.1591 3.29009C20.1029 3.12732 19.9491 3.00969 19.7658 3.00969H18.5341C18.33 3.00969 18.1644 3.17541 18.1644 3.37961V4.00477L18.1585 3.99737L17.2794 3.1177C17.2203 3.05852 17.1027 3.00969 17.0184 3.00969H15.057C13.4578 3.00969 12.1618 4.30663 12.1618 5.9069V8.14935C12.1618 9.51361 13.1051 10.6589 14.3753 10.9659C14.5513 11.0007 14.7332 11.0192 14.9195 11.0192H18.1644V11.0673C18.1644 11.2256 18.1326 11.3839 18.0564 11.523C17.8938 11.8212 17.5774 12.0231 17.2136 12.0231H14.7494C14.2304 12.0231 13.9665 12.6498 14.3317 13.019C14.6171 13.3097 14.9076 13.6064 15.122 13.8254C15.2337 13.9379 15.3823 14 15.5398 14H17.2203C17.5737 14 17.9115 13.9386 18.2235 13.8254C19.3658 13.4111 20.165 12.3072 20.165 11.011V3.35223C20.165 3.33078 20.1635 3.31006 20.1591 3.29009Z" fill="#424750"/>
<path fill-rule="evenodd" clip-rule="evenodd" d="M11.1614 3.37382V10.6435C11.1614 10.8477 10.9958 11.0134 10.7917 11.0134H9.52965C9.32545 11.0134 9.15999 10.8477 9.15999 10.6435V3.37382C9.15999 3.16955 9.32545 3.0039 9.52965 3.0039H10.7917C10.9958 3.0039 11.1614 3.16955 11.1614 3.37382Z" fill="#424750"/>
<path fill-rule="evenodd" clip-rule="evenodd" d="M11.1614 0.370245V1.63285C11.1614 1.83712 10.9958 2.00277 10.7917 2.00277H9.52965C9.32545 2.00277 9.15999 1.83712 9.15999 1.63285V0.370245C9.15999 0.165975 9.32545 0.000325125 9.52965 0.000325125H10.7917C10.9958 0.000325125 11.1614 0.165975 11.1614 0.370245Z" fill="#424750"/>
<path fill-rule="evenodd" clip-rule="evenodd" d="M23.1668 3.37382V10.6435C23.1668 10.8477 23.0013 11.0134 22.7972 11.0134H21.5351C21.3309 11.0134 21.1655 10.8477 21.1655 10.6435V3.37382C21.1655 3.16955 21.3309 3.0039 21.5351 3.0039H22.7972C23.0013 3.0039 23.1668 3.16955 23.1668 3.37382Z" fill="#424750"/>
<path fill-rule="evenodd" clip-rule="evenodd" d="M23.1668 0.370245V1.63285C23.1668 1.83712 23.0013 2.00277 22.7972 2.00277H21.5351C21.3309 2.00277 21.1655 1.83712 21.1655 1.63285V0.370245C21.1655 0.165975 21.3309 0.000325125 21.5351 0.000325125H22.7972C23.0013 0.000325125 23.1668 0.165975 23.1668 0.370245Z" fill="#424750"/>
<path fill-rule="evenodd" clip-rule="evenodd" d="M26.1713 6.80179C26.5732 6.37083 29.0409 3.93129 29.7689 3.14624C29.8505 3.05968 29.9651 3.00967 30.0835 3.00967H31.7422C32.115 3.00967 32.3186 3.45949 32.0567 3.72154C31.0367 4.7423 28.7361 7.01153 28.7361 7.01153L32.058 10.3669C32.2987 10.6055 32.1282 11.0134 31.7878 11.0134H30.0563C29.9379 11.0134 29.8233 10.9634 29.7417 10.8767C29.0079 10.0879 26.5577 7.66762 26.1713 7.25198V6.80179Z" fill="#424750"/>
</svg>
